<?xml version="1.0" encoding="utf-8"?>
<!-- Generator: Adobe Illustrator 25.0.1, SVG Export Plug-In . SVG Version: 6.00 Build 0)  -->
<svg version="1.0" id="katman_1" xmlns="http://www.w3.org/2000/svg" xmlns:xlink="http://www.w3.org/1999/xlink" x="0px" y="0px"
	 viewBox="0 0 409.1 259" style="enable-background:new 0 0 409.1 259;" xml:space="preserve">
<style type="text/css">
	.st0{fill:#8CBF84;}
	.st1{fill:#DE7875;}
	.st2{fill:#DCDCDC;}
	.st3{fill:#171716;}
</style>
<g id="Coin_Gecko_Vector_Text">
</g>
<g>
	<path class="st0" d="M74.7,106.7H46.2v45.6h28.5V106.7z"/>
	<path class="st1" d="M91.8,106.7H80.4v28.5h11.4C91.8,135.2,91.8,106.7,91.8,106.7z"/>
	<path class="st2" d="M91.8,140.9H80.4v11.4h11.4C91.8,152.3,91.8,140.9,91.8,140.9z"/>
	<path class="st3" d="M138.8,143.5l-0.1,0.1c-3.2,2.5-7.2,4-11.5,4c-10.5,0.1-17.5-7.2-17.5-18c0-10.6,6.9-18,16.7-18
		c4.5,0,8.1,1.1,11.1,3.4l0.1,0.1l2.7-4.4l-0.1-0.1c-3.4-2.9-8.2-4.4-13.9-4.4c-6.8,0-12.6,2.3-16.7,6.8c-3.9,4.2-6,10.1-6,16.6
		c0,14,9.3,23.5,23.2,23.5c5.7,0,11.4-2,14.4-5.1l0.1-0.1L138.8,143.5L138.8,143.5z"/>
	<path class="st3" d="M168.5,106c-6.5,0-12.4,2.4-16.7,6.8c-4.2,4.3-6.6,10.3-6.6,16.7c0,13.6,9.8,23.5,23.3,23.5
		c6.4,0,12.3-2.3,16.6-6.6c4.3-4.3,6.6-10.3,6.6-16.8C191.8,115.9,182,106,168.5,106z M185.7,129.5c0,10.5-7.2,18-17.2,18
		c-4.7,0-9-1.8-12.2-5.2c-3.2-3.4-5-7.9-5-12.9c0-5,1.7-9.7,4.9-12.9c3.2-3.3,7.5-5.1,12.3-5.1C178.3,111.5,185.7,119.2,185.7,129.5
		L185.7,129.5z"/>
	<path class="st3" d="M205.9,106.7h-5.8v45.6h5.8V106.7z"/>
	<path class="st3" d="M250.1,106.7v35.5L222,106.7l-0.1-0.1h-4.6v45.6h5.4v-35.3l28.1,35.4h4.6v-45.6H250.1L250.1,106.7z"/>
	<path class="st3" d="M288.9,129.2c-2-2.1-4.9-3.5-8.1-3.9l10.3-14.4v-4.2h-24.9v5.4h17.7l-11.2,17h1c7.9,0,12.9,3.8,12.9,9.6
		c0,5-3.9,8.9-8.9,8.9c-4.1,0-7.8-2.1-10.4-6l-0.1-0.1l-3.2,3.9l0.1,0.1c2.8,5.6,8.9,7.6,13.7,7.6c8.4,0,14.4-6,14.4-14.3
		C292.3,134.9,291.1,131.7,288.9,129.2z"/>
	<path class="st3" d="M314.7,124.1c-4.6,0-8.3,1.9-10.4,5.4c2.3-11.5,10.7-17.5,17.8-19.3l0.1-0.1l-2.2-4.2h-0.1
		c-5.4,1.3-10.8,4.8-14.8,9.7c-3.4,4-7.3,10.8-7.3,20.5c0,4.6,1.5,8.8,4.1,11.8c2.9,3.3,7,5,11.7,5c7,0,14.2-5.5,14.2-14.8
		C327.8,130,322.3,124.1,314.7,124.1L314.7,124.1z M322,138.6c0,5-3.7,8.9-8.5,8.9c-4.6,0-10.1-3-10.1-11.4c1.1-3.4,4.5-6.9,9.4-6.9
		C318.5,129.2,322,132.9,322,138.6z"/>
	<path class="st3" d="M348.1,106.2c-9.6,0-14.8,8.3-14.8,23.3c0,7.1,1.2,12.8,3.6,16.8c2.6,4.4,6.4,6.5,11.4,6.5
		c9.5,0,14.7-8.3,14.7-23.3C363,114.5,357.7,106.2,348.1,106.2L348.1,106.2z M357.2,129.5c0,12.4-2.8,18.2-8.9,18.2
		s-9.2-6.1-9.2-18.2c0-12.3,3-18.2,9.1-18.2C354.3,111.3,357.2,117.1,357.2,129.5z"/>
</g>
</svg>
