<?xml version="1.0" encoding="utf-8"?>
<!-- Generator: Adobe Illustrator 19.2.1, SVG Export Plug-In . SVG Version: 6.00 Build 0)  -->
<svg version="1.1" id="layer" xmlns="http://www.w3.org/2000/svg" xmlns:xlink="http://www.w3.org/1999/xlink" x="0px" y="0px"
	 viewBox="0 0 652 652" style="enable-background:new 0 0 652 652;" xml:space="preserve">
<style type="text/css">
	.st0{fill:#326DEC;}
</style>
<path id="path0_fill" class="st0" d="M38,285.2v83.4c0,1.9-1,2.9-2.9,2.9H23.3c-1.9,0-2.9-1-2.9-2.9v-83.4c0-1.9,1-2.9,2.9-2.9h11.8
	C37,282.3,38,283.3,38,285.2z M93.4,371.6H78.2c-7.3,0-13-1.9-16.9-5.8c-4-3.9-6-9.5-6-16.8v-44c0-7.3,2-12.9,6-16.8
	c4-3.9,9.6-5.8,16.9-5.8h15.1c7.2,0,12.8,2,16.8,6c4.1,3.9,6.1,9.4,6.1,16.7v6.5c0,2-1,3.1-3.1,3.1h-11.7c-1.9,0-2.9-1-2.9-3.1v-5.7
	c0-3-0.6-5-1.9-6.2c-1.2-1.3-3.3-1.9-6.2-1.9H81c-2.9,0-5,0.6-6.2,1.9c-1.2,1.2-1.8,3.3-1.8,6.2v42.3c0,3,0.6,5.1,1.8,6.4
	c1.3,1.2,3.4,1.8,6.2,1.8h9.4c3,0,5-0.6,6.2-1.8c1.3-1.3,1.9-3.4,1.9-6.4v-5.7c0-2,1-3.1,2.9-3.1h11.7c2,0,3.1,1,3.1,3.1v6.5
	c0,7.2-2,12.8-6.1,16.8C106.2,369.6,100.6,371.6,93.4,371.6z M155.7,356.3h9.9c3,0,5-0.6,6.2-1.8c1.3-1.3,1.9-3.4,1.9-6.4v-42.3
	c0-3-0.6-5-1.9-6.2c-1.2-1.3-3.3-1.9-6.2-1.9h-9.9c-3,0-5,0.6-6.2,1.9c-1.2,1.2-1.8,3.3-1.8,6.2v42.3c0,3,0.6,5.1,1.8,6.4
	C150.7,355.7,152.7,356.3,155.7,356.3z M168.5,371.6h-15.5c-7.3,0-13-1.9-16.9-5.8c-4-3.9-6-9.5-6-16.8v-44c0-7.3,2-12.9,6-16.8
	c4-3.9,9.6-5.8,16.9-5.8h15.5c7.3,0,13,1.9,16.9,5.8c4,3.9,6,9.5,6,16.8v44c0,7.3-2,12.9-6,16.8
	C181.4,369.6,175.8,371.6,168.5,371.6z"/>
<path id="path1_fill" class="st0" d="M444,389.1c-9.6,5.8-20.9,8.3-32.1,6.9c-11.2-1.4-21.5-6.5-29.5-14.4c-7.9-8-13-18.4-14.4-29.6
	c-1.4-11.2,1-22.6,6.8-32.2l23.3-38.9l7.5-12.5c2,3.4,4.5,7.8,7.3,12.6c9.6,16.5,22,37.9,25,43.3c8,14,14.2,32.2-7.7,48.7
	c5.7-12,4.6-22.7,1.3-32c-1-3.2-2.6-6.6-4.7-10.4l-1.5-2.7c-3.9-6.8-12.3-21.3-19.9-34.4l-19.7,32.9c-3.5,5.9-5.4,12.6-5.4,19.5
	c0,6.9,1.9,13.6,5.4,19.5c10.7,17.8,33.8,23.6,51.6,12.9c17.8-10.8,23.5-34,12.8-51.9l-25-41.8l-0.4-0.6l-14.1-24l7.3-12.2l43.1,72
	C475.4,343.6,467.7,374.7,444,389.1z"/>
<path id="path2_fill" d="M232.2,356.3h15.1c3,0,5-0.6,6.2-1.8c1.3-1.3,1.9-3.4,1.9-6.4v-42.3c0-3-0.6-5-1.9-6.2
	c-1.2-1.3-3.3-1.9-6.2-1.9h-15.1c-1,0-1.5,0.5-1.5,1.5v55.7C230.7,355.8,231.2,356.3,232.2,356.3z M213.1,368.7v-83.4
	c0-1.9,1-2.9,2.9-2.9h34.3c7.2,0,12.8,2,16.8,6c4.1,3.9,6.1,9.4,6.1,16.7v44c0,7.2-2,12.8-6.1,16.8c-4,3.9-9.6,5.8-16.8,5.8H216
	C214,371.6,213.1,370.6,213.1,368.7z M304.5,371.6h-11.8c-1.9,0-2.9-1-2.9-2.9v-83.4c0-1.9,1-2.9,2.9-2.9h33c7.2,0,12.9,2,16.9,6
	c4.1,4,6.1,9.6,6.1,16.8v10.8c0,10.5-4.1,17.4-12.4,20.8v0.6l14.9,31c0.8,2.2,0,3.3-2.4,3.3h-11.2c-1.7,0-2.9-0.2-3.6-0.6
	c-0.7-0.4-1.3-1.2-1.8-2.4l-13.9-30h-9.3c-1.1,0-1.7,0.5-1.7,1.5v28.5C307.4,370.6,306.5,371.6,304.5,371.6z M309,324.5h13.6
	c3,0,5.1-0.6,6.5-1.8c1.4-1.3,2.1-3.3,2.1-6.1v-10.8c0-2.9-0.7-5-2.1-6.2c-1.4-1.3-3.6-1.9-6.5-1.9H309c-1,0-1.5,0.5-1.5,1.5V323
	C307.4,324,308,324.5,309,324.5z M502.5,371.6h-11.8c-1.9,0-2.9-1-2.9-2.9v-83.4c0-1.9,1-2.9,2.9-2.9h33.9c7.2,0,12.8,2,16.8,6
	c4,3.9,6,9.4,6,16.7v13.3c0,7.2-2,12.8-6,16.8c-4,3.9-9.6,5.8-16.8,5.8h-17.5c-1.1,0-1.7,0.5-1.7,1.5v26.2
	C505.4,370.6,504.4,371.6,502.5,371.6z M506.9,325.5h14.7c3,0,5-0.6,6.2-1.8c1.2-1.3,1.8-3.4,1.8-6.2v-11.7c0-3-0.6-5-1.8-6.2
	c-1.2-1.3-3.3-1.9-6.2-1.9h-14.7c-1,0-1.5,0.5-1.5,1.5V324C505.4,325,505.9,325.5,506.9,325.5z M559.2,348.8V346
	c0-1.9,1-2.9,2.9-2.9h11.8c1.9,0,2.9,1,2.9,2.9v1.1c0,3.5,0.7,5.9,2.1,7.2c1.4,1.3,3.9,1.9,7.6,1.9h6.5c3.6,0,6.1-0.7,7.5-2.1
	c1.5-1.4,2.2-4,2.2-7.8v-1.7c0-2.7-1.1-4.7-3.3-6.1c-2.1-1.5-4.8-2.4-8.1-2.6c-3.2-0.3-6.8-0.8-10.6-1.5c-3.7-0.8-7.2-1.9-10.4-3.1
	c-3.2-1.3-6-3.7-8.2-7.4c-2.1-3.7-3.2-8.4-3.2-14.2v-4.9c0-7.2,2-12.8,6.1-16.8c4.1-4,9.7-6,16.9-6H596c7.3,0,13,2,17.1,6
	c4.1,4,6.1,9.6,6.1,16.8v2.6c0,1.9-1,2.9-2.9,2.9h-11.8c-1.9,0-2.9-1-2.9-2.9v-0.8c0-3.6-0.7-6.1-2.1-7.4c-1.4-1.3-3.9-1.9-7.6-1.9
	h-5.4c-3.8,0-6.4,0.7-7.8,2.2c-1.3,1.4-1.9,4.2-1.9,8.3v2.6c0,4.4,3.8,6.8,11.4,7.5c7.9,0.6,14.9,2.2,21,4.7
	c3.2,1.4,5.9,3.9,8.1,7.5c2.2,3.5,3.3,8.1,3.3,13.6v4.7c0,7.2-2,12.8-6.1,16.8c-4.1,4-9.7,6-16.9,6h-15.1c-7.2,0-12.9-2-16.9-6
	C561.2,361.6,559.2,356,559.2,348.8z"/>
</svg>
